<?xml version="1.0" standalone="no"?><!DOCTYPE svg PUBLIC "-//W3C//DTD SVG 1.1//EN"
        "http://www.w3.org/Graphics/SVG/1.1/DTD/svg11.dtd">
<svg t="1651301738375" class="icon" viewBox="0 0 1024 1024" version="1.1" xmlns="http://www.w3.org/2000/svg" p-id="2267"
     data-darkreader-inline-fill="" xmlns:xlink="http://www.w3.org/1999/xlink" width="36" height="36">
    <defs>
        <style type="text/css"></style>
    </defs>
    <path d="M939 234.9L726 21.2C712.5 7.6 694.2 0 675 0H264c-39.6 0-72 32.4-72 72v376c0 19.9 16.1 36 36 36s36-16.1 36-36V72.1l0.1-0.1H604v248c0 19.9 16.1 36 36 36h248v595.9l-0.1 0.1H644c-19.9 0-36 16.1-36 36s16.1 36 36 36h244c39.6 0 72-32.4 72-72V285.7c0-19-7.6-37.3-21-50.8zM676 284V73l210.3 211H676zM504 512H136c-39.8 0-72 32.2-72 72v368c0 39.8 32.2 72 72 72h368c39.8 0 72-32.2 72-72V584c0-39.8-32.2-72-72-72z m-15.3 418.9c-19.3 4.8-38.8-6.9-43.7-26.2l-40.4-161.6-84.5 169c-6.5 13-20.2 20.8-34.8 19.8-14.5-1-27-10.7-31.6-24.5L224 817.8l-29.8 89.5c-5 15.1-19.1 24.6-34.1 24.6-3.8 0-7.6-0.6-11.4-1.9-18.9-6.3-29.1-26.7-22.8-45.5l64-192c4.9-14.7 18.7-24.6 34.2-24.6s29.3 9.9 34.2 24.6L294.8 802l89.1-178.3c6.7-13.5 21.1-21.3 36.1-19.7 15 1.6 27.3 12.4 31 27.1l64 256c4.7 19.5-7 39-26.3 43.8z"
          p-id="2268" fill="#1296db" data-darkreader-inline-fill="" style="--darkreader-inline-fill:#078bcf;"></path>
</svg>